<svg xmlns="http://www.w3.org/2000/svg" viewBox="0 0 333 66"><defs><style>.a{fill:#fff;}</style></defs><title>logo2x</title><path class="a" d="M.49,10.25a72.87,72.87,0,0,1,12-.93c6.18,0,10.71,1.44,13.59,4a13,13,0,0,1,4.24,10.14c0,4.38-1.3,7.83-3.74,10.35-3.31,3.52-8.7,5.31-14.81,5.31a21.54,21.54,0,0,1-5-.43V58.12H.49ZM6.74,33.61a21,21,0,0,0,5.18.5c7.54,0,12.14-3.66,12.14-10.35,0-6.39-4.52-9.48-11.42-9.48a26.23,26.23,0,0,0-5.9.5Z"/><path class="a" d="M38.15,7.09h6.32V28.8h.15a11.64,11.64,0,0,1,4.53-4.46,13,13,0,0,1,6.46-1.8c4.68,0,12.15,2.88,12.15,14.88v20.7H61.44v-20c0-5.61-2.09-10.35-8-10.35a9.09,9.09,0,0,0-8.49,6.32,7.87,7.87,0,0,0-.43,3v21H38.15Z"/><path class="a" d="M109.51,40.44c0,12.86-8.91,18.47-17.32,18.47-9.41,0-16.67-6.9-16.67-17.9,0-11.64,7.62-18.47,17.25-18.47C102.76,22.54,109.51,29.8,109.51,40.44Zm-27.6.36c0,7.62,4.39,13.37,10.57,13.37S103,48.49,103,40.65c0-5.89-2.94-13.36-10.42-13.36S81.91,34.19,81.91,40.8Z"/><path class="a" d="M117.49,32.75c0-3.6-.08-6.54-.29-9.42h5.61l.35,5.75h.15a12.8,12.8,0,0,1,11.5-6.54c4.81,0,12.29,2.88,12.29,14.81V58.12h-6.33v-20c0-5.61-2.08-10.28-8.05-10.28a9,9,0,0,0-8.48,6.47,9.29,9.29,0,0,0-.43,2.94V58.12h-6.32Z"/><path class="a" d="M160.89,41.88C161,50.43,166.5,54,172.82,54a22.87,22.87,0,0,0,9.64-1.8l1.07,4.53A28,28,0,0,1,172,58.84c-10.71,0-17.1-7.05-17.1-17.54S161,22.54,171.17,22.54c11.36,0,14.38,10,14.38,16.39a24.23,24.23,0,0,1-.22,3Zm18.55-4.53c.07-4-1.66-10.28-8.77-10.28-6.4,0-9.2,5.89-9.7,10.28Z"/><path class="a" d="M191,39.5a6.37,6.37,0,0,1,6.47-6.68c3.81,0,6.4,2.73,6.47,6.68a6.47,6.47,0,1,1-12.94,0Z"/><path class="a" d="M211.56,10.32a98.67,98.67,0,0,1,14.8-1c9.2,0,15.17,1.65,19.84,5.17,5,3.74,8.19,9.71,8.19,18.26,0,9.27-3.37,15.67-8,19.62-5.1,4.24-12.86,6.25-22.35,6.25a94.58,94.58,0,0,1-12.43-.72Zm11,39.53a19.83,19.83,0,0,0,3.81.22c9.92.07,16.39-5.39,16.39-17,.07-10.06-5.82-15.38-15.24-15.38a22.59,22.59,0,0,0-5,.43Z"/><path class="a" d="M269.62,44c.36,4.53,4.82,6.69,9.92,6.69a31.13,31.13,0,0,0,9.71-1.44l1.43,7.4A34.59,34.59,0,0,1,278,58.84c-11.93,0-18.76-6.9-18.76-17.9,0-8.91,5.54-18.76,17.76-18.76,11.35,0,15.66,8.84,15.66,17.54a26.57,26.57,0,0,1-.35,4.31Zm12.87-7.47c0-2.66-1.15-7.12-6.18-7.12-4.6,0-6.47,4.17-6.76,7.12Z"/><path class="a" d="M299.16,34.19c0-4.39-.14-8.13-.29-11.22h9.49l.5,4.82h.22a12.86,12.86,0,0,1,10.85-5.61c7.19,0,12.58,4.75,12.58,15.1V58.12H321.59V38.64c0-4.53-1.59-7.62-5.54-7.62a5.83,5.83,0,0,0-5.53,4.1,7.48,7.48,0,0,0-.43,2.73V58.12H299.16Z"/></svg>